<?xml version="1.0" encoding="utf-8"?>
<!-- Generator: Adobe Illustrator 16.0.0, SVG Export Plug-In . SVG Version: 6.00 Build 0)  -->
<!DOCTYPE svg PUBLIC "-//W3C//DTD SVG 1.1//EN" "http://www.w3.org/Graphics/SVG/1.1/DTD/svg11.dtd">
<svg version="1.1" id="Layer_1" xmlns="http://www.w3.org/2000/svg" xmlns:xlink="http://www.w3.org/1999/xlink" x="0px" y="0px"
	 width="237.775px" height="55.297px" viewBox="0 0 237.775 55.297" enable-background="new 0 0 237.775 55.297"
	 xml:space="preserve">
<g enable-background="new    ">
	<path fill="#FFFFFF" d="M58.095,13.76h-4.614v22.552H49.79V13.76h-4.614v-3.288h12.92V13.76z"/>
	<path fill="#FFFFFF" d="M62.806,33.543c1.86,0,1.86-1.831,1.86-3.691h3.677c0,4.254-1.528,6.72-5.551,6.72
		c-5.033,0-5.523-4.687-5.523-9.921c0-5.004,0.721-9.056,5.537-9.056c4.816,0,5.537,4.052,5.537,9.056v0.433H60.96v0.923
		C60.96,30.14,60.73,33.543,62.806,33.543z M62.806,20.623c-1.903,0-1.846,2.711-1.846,4.614h3.691
		C64.652,23.319,64.695,20.623,62.806,20.623z"/>
	<path fill="#FFFFFF" d="M80.71,23.392v8.306c0,1.889,0.115,3.302,0.476,4.614h-3.677l-0.49-2.769
		c-0.735,1.456-1.557,3.028-3.691,3.028c-2.134,0-3.691-2.192-3.691-4.341c0-4.802,3.821-6.113,7.383-7.513v-1.326
		c0-1.63-0.303-2.941-1.846-2.941c-1.514,0-1.846,1.326-1.846,2.941h-3.691c0.043-3.489,2.033-5.797,5.537-5.797
		S80.71,19.96,80.71,23.392z M73.327,31.25c0,1.385,0.519,2.293,1.846,2.293c0.894,0,1.457-0.836,1.846-1.355v-5.104
		C75.562,28.063,73.327,29.016,73.327,31.25z"/>
	<path fill="#FFFFFF" d="M83.891,36.312v-25.84h3.691v25.84H83.891z"/>
	<path fill="#FFFFFF" d="M96.174,33.543c1.86,0,1.86-1.831,1.86-3.691h3.677c0,4.254-1.528,6.72-5.551,6.72
		c-5.033,0-5.523-4.687-5.523-9.921c0-5.004,0.721-9.056,5.537-9.056c4.816,0,5.537,4.052,5.537,9.056v0.433h-7.383v0.923
		C94.328,30.14,94.097,33.543,96.174,33.543z M96.174,20.623c-1.903,0-1.846,2.711-1.846,4.614h3.691
		C98.019,23.319,98.063,20.623,96.174,20.623z"/>
	<path fill="#FFFFFF" d="M114.077,23.392v8.306c0,1.889,0.115,3.302,0.476,4.614h-3.677l-0.49-2.769
		c-0.735,1.456-1.557,3.028-3.691,3.028c-2.134,0-3.691-2.192-3.691-4.341c0-4.802,3.821-6.113,7.383-7.513v-1.326
		c0-1.63-0.303-2.941-1.846-2.941c-1.514,0-1.846,1.326-1.846,2.941h-3.691c0.043-3.489,2.033-5.797,5.537-5.797
		S114.077,19.96,114.077,23.392z M106.695,31.25c0,1.385,0.519,2.293,1.846,2.293c0.894,0,1.457-0.836,1.846-1.355v-5.104
		C108.93,28.063,106.695,29.016,106.695,31.25z"/>
	<path fill="#FFFFFF" d="M122.191,11.395c0.893,0,1.354,0.058,2.277,0.173v2.74c-0.375-0.029-0.879-0.145-1.24-0.145
		c-1.326,0-1.528,0.98-1.528,2.307v1.385h2.769v2.769h-2.769v15.688h-3.691V20.623h-1.846v-2.769h1.846v-0.707
		C118.008,13.572,118.599,11.395,122.191,11.395z"/>
	<path fill="#FFFFFF" d="M133.273,36.312h-3.691l5.537-25.84h3.691l5.537,25.84h-3.691l-1.385-6.46h-4.613L133.273,36.312z
		 M136.964,16.009l-1.846,11.074h3.691L136.964,16.009z"/>
	<path fill="#FFFFFF" d="M150.859,33.543c1.846,0,1.846-1.846,1.846-3.691h3.691c0,4.052-1.428,6.72-5.537,6.72
		c-5.004,0-5.537-4.499-5.537-9.488s0.533-9.488,5.537-9.488c4.225,0,5.537,2.523,5.537,6.72h-3.691c0-1.73-0.145-3.85-1.846-3.85
		c-2.221,0-1.846,4.282-1.846,6.618C149.013,29.404,148.595,33.543,150.859,33.543z"/>
	<path fill="#FFFFFF" d="M168.834,23.392v8.306c0,1.889,0.115,3.302,0.476,4.614h-3.677l-0.49-2.769
		c-0.735,1.456-1.558,3.028-3.691,3.028s-3.691-2.192-3.691-4.341c0-4.802,3.821-6.113,7.383-7.513v-1.326
		c0-1.63-0.303-2.941-1.846-2.941c-1.515,0-1.846,1.326-1.846,2.941h-3.691c0.044-3.489,2.033-5.797,5.537-5.797
		S168.834,19.96,168.834,23.392z M161.451,31.25c0,1.385,0.519,2.293,1.846,2.293c0.894,0,1.456-0.836,1.846-1.355v-5.104
		C163.687,28.063,161.451,29.016,161.451,31.25z"/>
	<path fill="#FFFFFF" d="M179.904,19.686v-9.199h3.691v25.825h-3.691v-1.673c-0.852,0.88-2.02,1.933-3.691,1.933
		c-3.706,0-4.615-4.845-4.615-8.58c0-4.83-0.057-10.396,4.557-10.396C177.9,17.595,178.937,18.662,179.904,19.686z M177.134,33.543
		c0.952,0,1.947-0.245,2.77-0.577V21.358c-0.678-0.403-1.745-0.735-2.77-0.735c-2.162,0-1.846,3.302-1.846,5.522
		C175.288,28.669,174.9,33.543,177.134,33.543z"/>
	<path fill="#FFFFFF" d="M192.154,33.543c1.859,0,1.859-1.831,1.859-3.691h3.678c0,4.254-1.529,6.72-5.552,6.72
		c-5.032,0-5.522-4.687-5.522-9.921c0-5.004,0.721-9.056,5.537-9.056s5.537,4.052,5.537,9.056v0.433h-7.383v0.923
		C190.308,30.14,190.077,33.543,192.154,33.543z M192.154,20.623c-1.904,0-1.846,2.711-1.846,4.614h3.691
		C193.999,23.319,194.042,20.623,192.154,20.623z"/>
	<path fill="#FFFFFF" d="M211.154,21.863v14.448h-3.691V22.916c0-1.053,0.101-2.293-0.924-2.293c-1.182,0-2.104,0.62-2.768,1.168
		v14.521h-3.691V17.854h3.691v2.091c0.994-1.183,2.422-2.351,4.6-2.351c1.831,0,2.509,0.822,2.783,2.438
		c1.081-1.413,2.321-2.438,4.613-2.438c2.842,0,2.77,2.451,2.77,5.292v13.425h-3.691V22.844c0-1.023,0.086-2.221-0.924-2.221
		C212.71,20.623,211.831,21.315,211.154,21.863z"/>
	<path fill="#FFFFFF" d="M224.309,35.476l-4.182-17.621h3.691c0.778,4.312,1.587,8.58,2.321,12.92
		c0.692-4.384,1.529-8.608,2.293-12.92h3.691l-4.614,19.38c-0.663,2.869-2.913,3.691-6.46,3.691v-2.769
		C222.953,38.157,224.309,37.35,224.309,35.476z"/>
</g>
<g enable-background="new    ">
	<path fill="#FFFFFF" d="M51.18,51.407c0-0.383,0.066-0.99,0.145-1.649h-0.026c-0.699,1.319-1.571,1.795-2.481,1.795
		c-1.122,0-1.834-0.897-1.834-2.112c0-2.217,1.637-4.566,4.421-4.566c0.607,0,1.28,0.105,1.716,0.251l-0.647,3.325
		c-0.211,1.109-0.304,2.244-0.277,2.957H51.18z M51.893,45.837c-0.159-0.039-0.396-0.092-0.766-0.092
		c-1.65,0-2.996,1.729-3.009,3.497c0,0.713,0.25,1.413,1.095,1.413c0.911,0,1.993-1.188,2.31-2.891L51.893,45.837z"/>
	<path fill="#FFFFFF" d="M53.832,51.407l0.858-4.527c0.145-0.713,0.224-1.333,0.304-1.861h0.977l-0.158,1.254h0.026
		c0.567-0.897,1.425-1.398,2.362-1.398c0.766,0,1.624,0.436,1.624,1.781c0,0.277-0.053,0.687-0.119,1.03l-0.713,3.722h-1.095
		l0.699-3.683c0.053-0.251,0.092-0.555,0.092-0.818c0-0.646-0.25-1.122-1.003-1.122c-0.779,0-1.887,0.938-2.178,2.521l-0.581,3.102
		H53.832z"/>
	<path fill="#FFFFFF" d="M69.404,47.54c0,1.967-1.399,4.013-3.537,4.013c-1.597,0-2.495-1.188-2.495-2.627
		c0-2.099,1.465-4.052,3.537-4.052C68.638,44.874,69.404,46.181,69.404,47.54z M64.507,48.887c0,1.042,0.567,1.795,1.504,1.795
		c1.293,0,2.271-1.663,2.271-3.155c0-0.738-0.343-1.781-1.492-1.781C65.418,45.745,64.494,47.421,64.507,48.887z"/>
	<path fill="#FFFFFF" d="M70.168,51.407l0.858-4.527c0.145-0.713,0.224-1.333,0.304-1.861h0.977l-0.158,1.254h0.026
		c0.567-0.897,1.425-1.398,2.362-1.398c0.766,0,1.624,0.436,1.624,1.781c0,0.277-0.053,0.687-0.119,1.03l-0.713,3.722h-1.095
		l0.699-3.683c0.053-0.251,0.092-0.555,0.092-0.818c0-0.646-0.25-1.122-1.003-1.122c-0.779,0-1.887,0.938-2.178,2.521l-0.581,3.102
		H70.168z"/>
	<path fill="#FFFFFF" d="M77.227,51.407l1.782-9.371h1.096l-1.795,9.371H77.227z"/>
	<path fill="#FFFFFF" d="M80.236,51.407l1.228-6.389h1.095l-1.228,6.389H80.236z M81.661,43.237c0-0.423,0.33-0.739,0.726-0.739
		s0.646,0.29,0.646,0.687c-0.013,0.436-0.316,0.739-0.739,0.739C81.912,43.924,81.661,43.633,81.661,43.237z"/>
	<path fill="#FFFFFF" d="M83.258,51.407l0.858-4.527c0.145-0.713,0.224-1.333,0.304-1.861h0.977l-0.158,1.254h0.026
		c0.567-0.897,1.425-1.398,2.362-1.398c0.766,0,1.624,0.436,1.624,1.781c0,0.277-0.053,0.687-0.119,1.03l-0.713,3.722h-1.095
		l0.699-3.683c0.053-0.251,0.092-0.555,0.092-0.818c0-0.646-0.25-1.122-1.003-1.122c-0.779,0-1.887,0.938-2.178,2.521l-0.581,3.102
		H83.258z"/>
	<path fill="#FFFFFF" d="M94.91,51.038c-0.475,0.276-1.254,0.501-2.112,0.501c-1.689,0-2.429-1.148-2.429-2.561
		c0-1.927,1.425-4.104,3.484-4.104c1.214,0,1.875,0.726,1.875,1.637c0,1.676-1.888,2.125-4.25,2.085
		c-0.053,0.277-0.013,0.871,0.132,1.215c0.251,0.567,0.766,0.857,1.425,0.857c0.752,0,1.32-0.237,1.716-0.448L94.91,51.038z
		 M93.696,45.731c-1.043,0-1.821,1.017-2.085,2.02c1.716,0.014,3.062-0.211,3.062-1.201C94.673,46.022,94.277,45.731,93.696,45.731z
		"/>
	<path fill="#FFFFFF" d="M98.736,50.299c0.304,0.185,0.858,0.396,1.373,0.396c0.739,0,1.214-0.475,1.214-1.043
		c0-0.501-0.224-0.805-0.884-1.174c-0.739-0.409-1.148-0.978-1.148-1.624c0-1.122,0.964-1.979,2.31-1.979
		c0.581,0,1.095,0.158,1.333,0.316l-0.304,0.832c-0.224-0.133-0.633-0.291-1.108-0.291c-0.66,0-1.135,0.409-1.135,0.964
		c0,0.462,0.304,0.752,0.871,1.069c0.713,0.409,1.201,0.963,1.201,1.676c0,1.347-1.096,2.099-2.442,2.099
		c-0.687,0-1.293-0.211-1.584-0.436L98.736,50.299z"/>
	<path fill="#FFFFFF" d="M108,51.156c-0.33,0.158-0.99,0.383-1.848,0.383c-1.65,0-2.455-1.108-2.455-2.468
		c0-2.178,1.61-4.185,3.907-4.185c0.594,0,1.135,0.172,1.333,0.277l-0.316,0.871c-0.251-0.118-0.607-0.237-1.083-0.237
		c-1.663,0-2.706,1.637-2.706,3.142c0,1.029,0.541,1.702,1.584,1.702c0.646,0,1.148-0.198,1.478-0.356L108,51.156z"/>
	<path fill="#FFFFFF" d="M109.187,51.407l1.782-9.371h1.096l-0.792,4.118h0.026c0.541-0.779,1.32-1.28,2.283-1.28
		c0.726,0,1.584,0.448,1.584,1.716c0,0.343-0.04,0.752-0.105,1.082l-0.713,3.735h-1.096l0.713-3.683
		c0.04-0.237,0.079-0.527,0.079-0.884c0-0.595-0.277-1.057-0.99-1.057c-0.845,0-1.914,0.99-2.178,2.429l-0.594,3.194H109.187z"/>
	<path fill="#FFFFFF" d="M122.357,47.54c0,1.967-1.398,4.013-3.537,4.013c-1.597,0-2.495-1.188-2.495-2.627
		c0-2.099,1.465-4.052,3.537-4.052C121.592,44.874,122.357,46.181,122.357,47.54z M117.461,48.887c0,1.042,0.567,1.795,1.504,1.795
		c1.294,0,2.271-1.663,2.271-3.155c0-0.738-0.344-1.781-1.492-1.781C118.371,45.745,117.448,47.421,117.461,48.887z"/>
	<path fill="#FFFFFF" d="M129.284,47.54c0,1.967-1.398,4.013-3.537,4.013c-1.597,0-2.494-1.188-2.494-2.627
		c0-2.099,1.465-4.052,3.537-4.052C128.52,44.874,129.284,46.181,129.284,47.54z M124.388,48.887c0,1.042,0.568,1.795,1.505,1.795
		c1.294,0,2.271-1.663,2.271-3.155c0-0.738-0.344-1.781-1.492-1.781C125.299,45.745,124.375,47.421,124.388,48.887z"/>
	<path fill="#FFFFFF" d="M130.062,51.407l1.781-9.371h1.096l-1.795,9.371H130.062z"/>
	<path fill="#FFFFFF" d="M135.63,51.407l1.043-5.53h-0.845l0.158-0.858h0.858l0.065-0.329c0.146-0.898,0.462-1.716,1.043-2.231
		c0.396-0.369,0.964-0.567,1.518-0.567c0.436,0,0.726,0.079,0.871,0.172l-0.237,0.871c-0.172-0.079-0.396-0.119-0.646-0.119
		c-0.871,0-1.294,0.845-1.479,1.901l-0.053,0.303h1.426l-0.172,0.858h-1.412l-1.057,5.53H135.63z"/>
	<path fill="#FFFFFF" d="M145.33,47.54c0,1.967-1.399,4.013-3.537,4.013c-1.597,0-2.495-1.188-2.495-2.627
		c0-2.099,1.466-4.052,3.537-4.052C144.566,44.874,145.33,46.181,145.33,47.54z M140.434,48.887c0,1.042,0.567,1.795,1.505,1.795
		c1.293,0,2.27-1.663,2.27-3.155c0-0.738-0.343-1.781-1.491-1.781C141.345,45.745,140.421,47.421,140.434,48.887z"/>
	<path fill="#FFFFFF" d="M146.094,51.407l0.778-4.118c0.158-0.831,0.264-1.676,0.33-2.271h0.964
		c-0.053,0.449-0.105,0.898-0.172,1.387h0.04c0.408-0.871,1.096-1.531,1.953-1.531c0.092,0,0.225,0.013,0.304,0.026l-0.212,1.082
		c-0.065-0.013-0.171-0.026-0.289-0.026c-0.951,0-1.796,1.148-2.072,2.64l-0.529,2.812H146.094z"/>
	<path fill="#FFFFFF" d="M159.49,42.036l-1.398,7.352c-0.133,0.66-0.238,1.399-0.277,2.02h-1.004l0.172-1.268h-0.026
		c-0.581,0.911-1.386,1.413-2.296,1.413c-1.241,0-1.914-1.017-1.914-2.323c0-2.271,1.689-4.355,3.945-4.355
		c0.41,0,0.858,0.092,1.136,0.225l0.567-3.062H159.49z M157.656,46.022c-0.225-0.146-0.595-0.265-1.057-0.265
		c-1.531,0-2.719,1.624-2.719,3.326c0,0.766,0.264,1.571,1.201,1.571c0.845,0,1.861-0.964,2.139-2.402L157.656,46.022z"/>
	<path fill="#FFFFFF" d="M164.226,51.038c-0.475,0.276-1.254,0.501-2.111,0.501c-1.689,0-2.43-1.148-2.43-2.561
		c0-1.927,1.426-4.104,3.484-4.104c1.215,0,1.875,0.726,1.875,1.637c0,1.676-1.888,2.125-4.25,2.085
		c-0.053,0.277-0.014,0.871,0.132,1.215c0.251,0.567,0.766,0.857,1.425,0.857c0.753,0,1.32-0.237,1.717-0.448L164.226,51.038z
		 M163.011,45.731c-1.043,0-1.82,1.017-2.085,2.02c1.716,0.014,3.062-0.211,3.062-1.201
		C163.988,46.022,163.592,45.731,163.011,45.731z"/>
	<path fill="#FFFFFF" d="M167.023,45.019l0.555,3.644c0.092,0.726,0.171,1.214,0.197,1.57h0.039
		c0.133-0.343,0.305-0.766,0.674-1.491l1.953-3.723h1.201l-3.551,6.389h-1.082l-1.108-6.389H167.023z"/>
	<path fill="#FFFFFF" d="M176.102,51.038c-0.476,0.276-1.254,0.501-2.112,0.501c-1.689,0-2.428-1.148-2.428-2.561
		c0-1.927,1.425-4.104,3.484-4.104c1.214,0,1.874,0.726,1.874,1.637c0,1.676-1.888,2.125-4.25,2.085
		c-0.053,0.277-0.013,0.871,0.132,1.215c0.251,0.567,0.766,0.857,1.426,0.857c0.752,0,1.319-0.237,1.715-0.448L176.102,51.038z
		 M174.888,45.731c-1.043,0-1.822,1.017-2.086,2.02c1.716,0.014,3.062-0.211,3.062-1.201
		C175.865,46.022,175.468,45.731,174.888,45.731z"/>
	<path fill="#FFFFFF" d="M177.486,51.407l1.782-9.371h1.096l-1.796,9.371H177.486z"/>
	<path fill="#FFFFFF" d="M186.618,47.54c0,1.967-1.398,4.013-3.537,4.013c-1.597,0-2.494-1.188-2.494-2.627
		c0-2.099,1.465-4.052,3.537-4.052C185.854,44.874,186.618,46.181,186.618,47.54z M181.722,48.887c0,1.042,0.568,1.795,1.505,1.795
		c1.294,0,2.271-1.663,2.271-3.155c0-0.738-0.344-1.781-1.492-1.781C182.633,45.745,181.709,47.421,181.722,48.887z"/>
	<path fill="#FFFFFF" d="M186.816,54.021l1.28-6.731c0.132-0.766,0.264-1.623,0.356-2.271h1.003l-0.185,1.201h0.025
		c0.582-0.831,1.426-1.346,2.297-1.346c1.387,0,1.967,1.135,1.967,2.31c0,2.244-1.609,4.369-3.734,4.369
		c-0.688,0-1.136-0.146-1.387-0.291h-0.026l-0.515,2.759H186.816z M188.611,50.338c0.277,0.225,0.699,0.356,1.215,0.356
		c1.412,0,2.6-1.755,2.6-3.432c0-0.673-0.304-1.479-1.228-1.479c-0.858,0-1.94,0.99-2.271,2.772L188.611,50.338z"/>
	<path fill="#FFFFFF" d="M198.956,51.038c-0.475,0.276-1.254,0.501-2.111,0.501c-1.689,0-2.43-1.148-2.43-2.561
		c0-1.927,1.426-4.104,3.484-4.104c1.215,0,1.875,0.726,1.875,1.637c0,1.676-1.888,2.125-4.25,2.085
		c-0.053,0.277-0.014,0.871,0.132,1.215c0.251,0.567,0.766,0.857,1.425,0.857c0.753,0,1.32-0.237,1.717-0.448L198.956,51.038z
		 M197.741,45.731c-1.043,0-1.82,1.017-2.085,2.02c1.716,0.014,3.062-0.211,3.062-1.201
		C198.718,46.022,198.323,45.731,197.741,45.731z"/>
	<path fill="#FFFFFF" d="M200.327,51.407l0.779-4.118c0.158-0.831,0.264-1.676,0.33-2.271h0.963
		c-0.053,0.449-0.105,0.898-0.172,1.387h0.039c0.41-0.871,1.096-1.531,1.954-1.531c0.093,0,0.225,0.013,0.304,0.026l-0.211,1.082
		c-0.066-0.013-0.172-0.026-0.291-0.026c-0.95,0-1.795,1.148-2.072,2.64l-0.527,2.812H200.327z"/>
	<path fill="#FFFFFF" d="M204.576,50.299c0.304,0.185,0.858,0.396,1.372,0.396c0.74,0,1.215-0.475,1.215-1.043
		c0-0.501-0.225-0.805-0.885-1.174c-0.738-0.409-1.148-0.978-1.148-1.624c0-1.122,0.965-1.979,2.311-1.979
		c0.58,0,1.096,0.158,1.333,0.316l-0.304,0.832c-0.225-0.133-0.633-0.291-1.108-0.291c-0.66,0-1.136,0.409-1.136,0.964
		c0,0.462,0.305,0.752,0.871,1.069c0.713,0.409,1.201,0.963,1.201,1.676c0,1.347-1.096,2.099-2.441,2.099
		c-0.687,0-1.293-0.211-1.584-0.436L204.576,50.299z"/>
</g>
<g>
	<path opacity="0.7" fill="#FFFFFF" enable-background="new    " d="M27.641,44.671c-3.23-13.498-10.079-21.249-13.91-26.682
		c9.44,18.489,10.979,30.335,10.986,36.075h-3.633c-0.007-1.881-0.194-4.582-0.882-8.144c-7.71-0.692-15.646-6.132-16.716-18.757
		C3.159,23.266,2.926,7.327-0.219-0.626c0,0,0.646,0.505,9.021,6.162C21.92,14.397,38.248,32.531,27.641,44.671z"/>
	<path fill="#FFFFFF" d="M13.964,18.459c9.225,18.215,10.747,29.916,10.754,35.605h-3.633c-0.007-1.881-0.194-4.582-0.882-8.144
		c-7.71-0.692-15.646-6.132-16.716-18.757C3.166,23.362,2.929,8.129,0,0C5.757,5.885,10.333,12.21,13.964,18.459z"/>
</g>
</svg>
